<svg width="1440" height="820" viewBox="0 0 1440 820" fill="none" xmlns="http://www.w3.org/2000/svg">
<g clip-path="url(#clip0_2_2)">
<rect width="1440" height="820" fill="white"/>
<g filter="url(#filter0_d_2_2)">
<rect x="504" y="32" width="605" height="576" rx="6" fill="#3498DB"/>
</g>
<path d="M973.094 305.009C974.324 305.009 975.339 305.163 976.139 305.47C976.946 305.771 977.547 306.232 977.944 306.854C978.34 307.477 978.539 308.27 978.539 309.233C978.539 310.026 978.395 310.689 978.108 311.223C977.821 311.749 977.445 312.176 976.98 312.504C976.515 312.833 976.019 313.085 975.493 313.263L979.605 320H977.575L973.904 313.745H970.787V320H969.043V305.009H973.094ZM972.991 306.516H970.787V312.269H973.165C974.389 312.269 975.288 312.019 975.862 311.52C976.443 311.021 976.734 310.286 976.734 309.315C976.734 308.297 976.426 307.576 975.811 307.152C975.203 306.728 974.263 306.516 972.991 306.516ZM986.075 308.557C987.032 308.557 987.853 308.769 988.536 309.192C989.22 309.616 989.743 310.211 990.105 310.977C990.467 311.735 990.648 312.624 990.648 313.643V314.699H982.886C982.907 316.018 983.235 317.023 983.871 317.713C984.506 318.404 985.402 318.749 986.557 318.749C987.268 318.749 987.897 318.684 988.444 318.554C988.991 318.424 989.558 318.233 990.146 317.98V319.477C989.579 319.73 989.015 319.915 988.454 320.031C987.9 320.147 987.244 320.205 986.485 320.205C985.405 320.205 984.462 319.986 983.655 319.549C982.855 319.104 982.233 318.455 981.789 317.601C981.345 316.746 981.123 315.7 981.123 314.463C981.123 313.253 981.324 312.207 981.728 311.325C982.138 310.437 982.712 309.753 983.45 309.274C984.195 308.796 985.07 308.557 986.075 308.557ZM986.055 309.951C985.145 309.951 984.421 310.249 983.881 310.843C983.341 311.438 983.019 312.269 982.917 313.335H988.864C988.857 312.665 988.751 312.077 988.546 311.571C988.348 311.059 988.044 310.662 987.634 310.382C987.224 310.095 986.697 309.951 986.055 309.951ZM996.678 325.045C995.201 325.045 994.063 324.768 993.263 324.214C992.463 323.667 992.063 322.898 992.063 321.907C992.063 321.203 992.286 320.602 992.73 320.103C993.181 319.604 993.803 319.272 994.596 319.108C994.302 318.971 994.049 318.766 993.837 318.493C993.632 318.219 993.53 317.905 993.53 317.549C993.53 317.139 993.643 316.78 993.868 316.473C994.101 316.158 994.453 315.857 994.924 315.57C994.336 315.331 993.858 314.928 993.489 314.36C993.126 313.786 992.945 313.12 992.945 312.361C992.945 311.554 993.113 310.867 993.448 310.3C993.783 309.726 994.268 309.288 994.904 308.987C995.54 308.687 996.309 308.536 997.211 308.536C997.409 308.536 997.607 308.546 997.806 308.567C998.011 308.581 998.206 308.604 998.39 308.639C998.575 308.666 998.735 308.7 998.872 308.741H1002.73V309.838L1000.66 310.095C1000.86 310.361 1001.03 310.683 1001.17 311.059C1001.31 311.435 1001.37 311.852 1001.37 312.31C1001.37 313.431 1000.99 314.323 1000.24 314.986C999.477 315.642 998.435 315.97 997.108 315.97C996.794 315.97 996.473 315.943 996.144 315.888C995.81 316.073 995.553 316.278 995.375 316.503C995.205 316.729 995.119 316.989 995.119 317.283C995.119 317.501 995.184 317.676 995.314 317.806C995.451 317.936 995.645 318.031 995.898 318.093C996.151 318.147 996.456 318.175 996.811 318.175H998.79C1000.01 318.175 1000.95 318.431 1001.6 318.944C1002.26 319.457 1002.58 320.205 1002.58 321.189C1002.58 322.434 1002.08 323.387 1001.07 324.05C1000.05 324.713 998.592 325.045 996.678 325.045ZM996.729 323.712C997.659 323.712 998.428 323.616 999.036 323.425C999.651 323.24 1000.11 322.97 1000.41 322.615C1000.72 322.266 1000.87 321.849 1000.87 321.364C1000.87 320.913 1000.77 320.571 1000.56 320.338C1000.36 320.113 1000.06 319.962 999.662 319.887C999.265 319.805 998.78 319.764 998.206 319.764H996.257C995.751 319.764 995.311 319.843 994.935 320C994.559 320.157 994.268 320.39 994.063 320.697C993.865 321.005 993.766 321.388 993.766 321.846C993.766 322.454 994.022 322.916 994.535 323.23C995.047 323.551 995.779 323.712 996.729 323.712ZM997.17 314.729C997.983 314.729 998.595 314.524 999.005 314.114C999.415 313.704 999.621 313.106 999.621 312.32C999.621 311.479 999.412 310.85 998.995 310.433C998.578 310.009 997.963 309.797 997.149 309.797C996.37 309.797 995.769 310.016 995.345 310.454C994.928 310.884 994.719 311.517 994.719 312.351C994.719 313.116 994.931 313.704 995.355 314.114C995.779 314.524 996.384 314.729 997.17 314.729ZM1006.64 308.762V320H1004.94V308.762H1006.64ZM1005.81 304.558C1006.09 304.558 1006.33 304.65 1006.53 304.834C1006.74 305.012 1006.84 305.292 1006.84 305.675C1006.84 306.051 1006.74 306.332 1006.53 306.516C1006.33 306.701 1006.09 306.793 1005.81 306.793C1005.52 306.793 1005.27 306.701 1005.08 306.516C1004.88 306.332 1004.79 306.051 1004.79 305.675C1004.79 305.292 1004.88 305.012 1005.08 304.834C1005.27 304.65 1005.52 304.558 1005.81 304.558ZM1017.52 316.924C1017.52 317.642 1017.34 318.247 1016.98 318.739C1016.62 319.224 1016.11 319.59 1015.44 319.836C1014.78 320.082 1013.99 320.205 1013.06 320.205C1012.28 320.205 1011.6 320.144 1011.02 320.021C1010.45 319.897 1009.95 319.723 1009.52 319.498V317.929C1009.97 318.154 1010.52 318.359 1011.16 318.544C1011.79 318.729 1012.44 318.821 1013.1 318.821C1014.08 318.821 1014.78 318.664 1015.22 318.349C1015.65 318.035 1015.87 317.607 1015.87 317.067C1015.87 316.76 1015.78 316.49 1015.61 316.257C1015.44 316.018 1015.14 315.789 1014.73 315.57C1014.32 315.345 1013.76 315.099 1013.03 314.832C1012.31 314.559 1011.69 314.289 1011.17 314.022C1010.65 313.749 1010.24 313.417 1009.96 313.027C1009.68 312.638 1009.54 312.132 1009.54 311.51C1009.54 310.56 1009.92 309.832 1010.68 309.326C1011.46 308.813 1012.47 308.557 1013.72 308.557C1014.4 308.557 1015.03 308.625 1015.62 308.762C1016.21 308.892 1016.77 309.069 1017.28 309.295L1016.7 310.659C1016.24 310.46 1015.74 310.293 1015.22 310.156C1014.69 310.02 1014.15 309.951 1013.61 309.951C1012.82 309.951 1012.22 310.081 1011.79 310.341C1011.37 310.601 1011.17 310.956 1011.17 311.407C1011.17 311.756 1011.26 312.043 1011.45 312.269C1011.65 312.494 1011.97 312.706 1012.4 312.904C1012.83 313.103 1013.39 313.335 1014.1 313.602C1014.8 313.861 1015.41 314.131 1015.92 314.412C1016.44 314.685 1016.83 315.02 1017.1 315.417C1017.38 315.806 1017.52 316.309 1017.52 316.924ZM1023.89 318.811C1024.17 318.811 1024.46 318.787 1024.75 318.739C1025.05 318.691 1025.29 318.633 1025.47 318.564V319.887C1025.27 319.976 1025 320.051 1024.64 320.113C1024.29 320.174 1023.95 320.205 1023.61 320.205C1023.02 320.205 1022.48 320.103 1021.99 319.897C1021.51 319.686 1021.12 319.33 1020.83 318.831C1020.54 318.332 1020.39 317.642 1020.39 316.76V310.095H1018.8V309.264L1020.41 308.598L1021.08 306.157H1022.11V308.762H1025.4V310.095H1022.11V316.708C1022.11 317.413 1022.27 317.939 1022.59 318.288C1022.92 318.636 1023.35 318.811 1023.89 318.811ZM1032.07 308.557C1033.03 308.557 1033.85 308.769 1034.54 309.192C1035.22 309.616 1035.74 310.211 1036.1 310.977C1036.47 311.735 1036.65 312.624 1036.65 313.643V314.699H1028.89C1028.91 316.018 1029.23 317.023 1029.87 317.713C1030.51 318.404 1031.4 318.749 1032.56 318.749C1033.27 318.749 1033.9 318.684 1034.44 318.554C1034.99 318.424 1035.56 318.233 1036.14 317.98V319.477C1035.58 319.73 1035.01 319.915 1034.45 320.031C1033.9 320.147 1033.24 320.205 1032.48 320.205C1031.4 320.205 1030.46 319.986 1029.65 319.549C1028.85 319.104 1028.23 318.455 1027.79 317.601C1027.34 316.746 1027.12 315.7 1027.12 314.463C1027.12 313.253 1027.32 312.207 1027.73 311.325C1028.14 310.437 1028.71 309.753 1029.45 309.274C1030.19 308.796 1031.07 308.557 1032.07 308.557ZM1032.05 309.951C1031.14 309.951 1030.42 310.249 1029.88 310.843C1029.34 311.438 1029.02 312.269 1028.92 313.335H1034.86C1034.86 312.665 1034.75 312.077 1034.55 311.571C1034.35 311.059 1034.04 310.662 1033.63 310.382C1033.22 310.095 1032.7 309.951 1032.05 309.951ZM1044.65 308.557C1044.87 308.557 1045.11 308.57 1045.35 308.598C1045.6 308.618 1045.82 308.649 1046.01 308.69L1045.79 310.269C1045.61 310.221 1045.4 310.184 1045.18 310.156C1044.95 310.129 1044.74 310.115 1044.54 310.115C1044.09 310.115 1043.66 310.208 1043.26 310.392C1042.86 310.57 1042.52 310.83 1042.22 311.171C1041.91 311.506 1041.68 311.913 1041.51 312.392C1041.34 312.863 1041.25 313.39 1041.25 313.971V320H1039.54V308.762H1040.95L1041.14 310.833H1041.21C1041.44 310.416 1041.72 310.037 1042.05 309.695C1042.38 309.346 1042.76 309.069 1043.19 308.864C1043.63 308.659 1044.11 308.557 1044.65 308.557Z" fill="white"/>
<g filter="url(#filter1_d_2_2)">
<rect x="497" width="446" height="640" fill="white"/>
</g>
<rect x="674" y="517" width="92" height="34" fill="#3498DB"/>
<path d="M695.051 540V525.009H696.794V538.441H703.449V540H695.051ZM715.456 534.36C715.456 535.283 715.336 536.107 715.097 536.832C714.858 537.556 714.513 538.168 714.062 538.667C713.61 539.166 713.063 539.549 712.421 539.815C711.785 540.075 711.064 540.205 710.257 540.205C709.505 540.205 708.815 540.075 708.186 539.815C707.564 539.549 707.024 539.166 706.566 538.667C706.115 538.168 705.763 537.556 705.51 536.832C705.264 536.107 705.141 535.283 705.141 534.36C705.141 533.13 705.349 532.084 705.766 531.223C706.183 530.354 706.778 529.695 707.55 529.244C708.33 528.786 709.256 528.557 710.329 528.557C711.354 528.557 712.25 528.786 713.016 529.244C713.788 529.702 714.386 530.365 714.81 531.233C715.241 532.094 715.456 533.137 715.456 534.36ZM706.904 534.36C706.904 535.263 707.024 536.045 707.263 536.708C707.502 537.372 707.872 537.884 708.371 538.247C708.87 538.609 709.512 538.79 710.298 538.79C711.078 538.79 711.717 538.609 712.216 538.247C712.722 537.884 713.094 537.372 713.333 536.708C713.573 536.045 713.692 535.263 713.692 534.36C713.692 533.465 713.573 532.692 713.333 532.043C713.094 531.387 712.725 530.881 712.226 530.525C711.727 530.17 711.081 529.992 710.288 529.992C709.119 529.992 708.261 530.378 707.714 531.151C707.174 531.923 706.904 532.993 706.904 534.36ZM721.537 545.045C720.06 545.045 718.922 544.768 718.122 544.214C717.322 543.667 716.922 542.898 716.922 541.907C716.922 541.203 717.145 540.602 717.589 540.103C718.04 539.604 718.662 539.272 719.455 539.108C719.161 538.971 718.908 538.766 718.696 538.493C718.491 538.219 718.389 537.905 718.389 537.549C718.389 537.139 718.501 536.78 718.727 536.473C718.959 536.158 719.312 535.857 719.783 535.57C719.195 535.331 718.717 534.928 718.348 534.36C717.985 533.786 717.804 533.12 717.804 532.361C717.804 531.554 717.972 530.867 718.307 530.3C718.642 529.726 719.127 529.288 719.763 528.987C720.398 528.687 721.167 528.536 722.07 528.536C722.268 528.536 722.466 528.546 722.665 528.567C722.87 528.581 723.064 528.604 723.249 528.639C723.434 528.666 723.594 528.7 723.731 528.741H727.586V529.838L725.515 530.095C725.72 530.361 725.891 530.683 726.028 531.059C726.165 531.435 726.233 531.852 726.233 532.31C726.233 533.431 725.854 534.323 725.095 534.986C724.336 535.642 723.293 535.97 721.967 535.97C721.653 535.97 721.332 535.943 721.003 535.888C720.668 536.073 720.412 536.278 720.234 536.503C720.063 536.729 719.978 536.989 719.978 537.283C719.978 537.501 720.043 537.676 720.173 537.806C720.31 537.936 720.504 538.031 720.757 538.093C721.01 538.147 721.314 538.175 721.67 538.175H723.649C724.873 538.175 725.809 538.431 726.458 538.944C727.115 539.457 727.443 540.205 727.443 541.189C727.443 542.434 726.937 543.387 725.925 544.05C724.914 544.713 723.451 545.045 721.537 545.045ZM721.588 543.712C722.518 543.712 723.287 543.616 723.895 543.425C724.51 543.24 724.968 542.97 725.269 542.615C725.577 542.266 725.73 541.849 725.73 541.364C725.73 540.913 725.628 540.571 725.423 540.338C725.218 540.113 724.917 539.962 724.521 539.887C724.124 539.805 723.639 539.764 723.064 539.764H721.116C720.61 539.764 720.169 539.843 719.793 540C719.417 540.157 719.127 540.39 718.922 540.697C718.724 541.005 718.625 541.388 718.625 541.846C718.625 542.454 718.881 542.916 719.394 543.23C719.906 543.551 720.638 543.712 721.588 543.712ZM722.029 534.729C722.842 534.729 723.454 534.524 723.864 534.114C724.274 533.704 724.479 533.106 724.479 532.32C724.479 531.479 724.271 530.85 723.854 530.433C723.437 530.009 722.822 529.797 722.008 529.797C721.229 529.797 720.627 530.016 720.204 530.454C719.787 530.884 719.578 531.517 719.578 532.351C719.578 533.116 719.79 533.704 720.214 534.114C720.638 534.524 721.243 534.729 722.029 534.729ZM731.503 528.762V540H729.801V528.762H731.503ZM730.673 524.558C730.953 524.558 731.192 524.65 731.391 524.834C731.596 525.012 731.698 525.292 731.698 525.675C731.698 526.051 731.596 526.332 731.391 526.516C731.192 526.701 730.953 526.793 730.673 526.793C730.379 526.793 730.133 526.701 729.935 526.516C729.743 526.332 729.647 526.051 729.647 525.675C729.647 525.292 729.743 525.012 729.935 524.834C730.133 524.65 730.379 524.558 730.673 524.558ZM740.435 528.557C741.768 528.557 742.776 528.885 743.459 529.541C744.143 530.19 744.485 531.236 744.485 532.679V540H742.803V532.792C742.803 531.855 742.588 531.154 742.157 530.689C741.733 530.225 741.081 529.992 740.199 529.992C738.955 529.992 738.08 530.344 737.574 531.048C737.068 531.752 736.815 532.774 736.815 534.114V540H735.113V528.762H736.487L736.743 530.382H736.835C737.075 529.985 737.379 529.654 737.748 529.387C738.117 529.114 738.531 528.909 738.989 528.772C739.447 528.628 739.929 528.557 740.435 528.557Z" fill="white"/>
<path d="M571.684 386.723C573.526 386.723 574.87 387.084 575.717 387.807C576.57 388.523 576.996 389.551 576.996 390.893C576.996 391.498 576.895 392.074 576.693 392.621C576.498 393.161 576.179 393.64 575.736 394.057C575.294 394.467 574.711 394.792 573.988 395.033C573.272 395.268 572.393 395.385 571.352 395.385H569.613V401H567.953V386.723H571.684ZM571.527 388.139H569.613V393.959H571.166C572.077 393.959 572.836 393.861 573.441 393.666C574.053 393.471 574.512 393.155 574.818 392.719C575.124 392.276 575.277 391.69 575.277 390.961C575.277 390.01 574.975 389.304 574.369 388.842C573.764 388.373 572.816 388.139 571.527 388.139ZM583.744 390.121C585.02 390.121 585.967 390.408 586.586 390.98C587.204 391.553 587.514 392.468 587.514 393.725V401H586.332L586.02 399.418H585.941C585.642 399.809 585.329 400.137 585.004 400.404C584.678 400.665 584.301 400.863 583.871 401C583.448 401.13 582.927 401.195 582.309 401.195C581.658 401.195 581.078 401.081 580.57 400.854C580.069 400.626 579.672 400.281 579.379 399.818C579.092 399.356 578.949 398.77 578.949 398.061C578.949 396.993 579.372 396.173 580.219 395.6C581.065 395.027 582.354 394.714 584.086 394.662L585.932 394.584V393.93C585.932 393.005 585.733 392.357 585.336 391.986C584.939 391.615 584.379 391.43 583.656 391.43C583.096 391.43 582.562 391.511 582.055 391.674C581.547 391.837 581.065 392.029 580.609 392.25L580.111 391.02C580.593 390.772 581.146 390.561 581.771 390.385C582.396 390.209 583.054 390.121 583.744 390.121ZM585.912 395.727L584.281 395.795C582.947 395.847 582.006 396.065 581.459 396.449C580.912 396.833 580.639 397.377 580.639 398.08C580.639 398.692 580.824 399.145 581.195 399.438C581.566 399.73 582.058 399.877 582.67 399.877C583.62 399.877 584.398 399.613 585.004 399.086C585.609 398.559 585.912 397.768 585.912 396.713V395.727ZM597.777 398.07C597.777 398.754 597.605 399.33 597.26 399.799C596.921 400.261 596.433 400.609 595.795 400.844C595.163 401.078 594.408 401.195 593.529 401.195C592.781 401.195 592.133 401.137 591.586 401.02C591.039 400.902 590.561 400.736 590.15 400.521V399.027C590.587 399.242 591.107 399.438 591.713 399.613C592.318 399.789 592.937 399.877 593.568 399.877C594.493 399.877 595.163 399.727 595.58 399.428C595.997 399.128 596.205 398.721 596.205 398.207C596.205 397.914 596.12 397.657 595.951 397.436C595.788 397.208 595.512 396.99 595.121 396.781C594.73 396.566 594.19 396.332 593.5 396.078C592.816 395.818 592.224 395.561 591.723 395.307C591.228 395.046 590.844 394.73 590.57 394.359C590.303 393.988 590.17 393.507 590.17 392.914C590.17 392.009 590.535 391.316 591.264 390.834C591.999 390.346 592.963 390.102 594.154 390.102C594.799 390.102 595.401 390.167 595.961 390.297C596.527 390.421 597.055 390.59 597.543 390.805L596.996 392.104C596.553 391.915 596.081 391.755 595.58 391.625C595.079 391.495 594.568 391.43 594.047 391.43C593.298 391.43 592.722 391.553 592.318 391.801C591.921 392.048 591.723 392.387 591.723 392.816C591.723 393.148 591.814 393.422 591.996 393.637C592.185 393.852 592.484 394.053 592.895 394.242C593.305 394.431 593.845 394.652 594.516 394.906C595.186 395.154 595.766 395.411 596.254 395.678C596.742 395.938 597.117 396.257 597.377 396.635C597.644 397.006 597.777 397.484 597.777 398.07ZM607.309 398.07C607.309 398.754 607.136 399.33 606.791 399.799C606.452 400.261 605.964 400.609 605.326 400.844C604.695 401.078 603.939 401.195 603.061 401.195C602.312 401.195 601.664 401.137 601.117 401.02C600.57 400.902 600.092 400.736 599.682 400.521V399.027C600.118 399.242 600.639 399.438 601.244 399.613C601.85 399.789 602.468 399.877 603.1 399.877C604.024 399.877 604.695 399.727 605.111 399.428C605.528 399.128 605.736 398.721 605.736 398.207C605.736 397.914 605.652 397.657 605.482 397.436C605.32 397.208 605.043 396.99 604.652 396.781C604.262 396.566 603.721 396.332 603.031 396.078C602.348 395.818 601.755 395.561 601.254 395.307C600.759 395.046 600.375 394.73 600.102 394.359C599.835 393.988 599.701 393.507 599.701 392.914C599.701 392.009 600.066 391.316 600.795 390.834C601.531 390.346 602.494 390.102 603.686 390.102C604.33 390.102 604.932 390.167 605.492 390.297C606.059 390.421 606.586 390.59 607.074 390.805L606.527 392.104C606.085 391.915 605.613 391.755 605.111 391.625C604.61 391.495 604.099 391.43 603.578 391.43C602.829 391.43 602.253 391.553 601.85 391.801C601.452 392.048 601.254 392.387 601.254 392.816C601.254 393.148 601.345 393.422 601.527 393.637C601.716 393.852 602.016 394.053 602.426 394.242C602.836 394.431 603.376 394.652 604.047 394.906C604.717 395.154 605.297 395.411 605.785 395.678C606.273 395.938 606.648 396.257 606.908 396.635C607.175 397.006 607.309 397.484 607.309 398.07ZM618.627 400.98L616.723 394.75C616.638 394.483 616.557 394.223 616.479 393.969C616.407 393.708 616.339 393.461 616.273 393.227C616.215 392.986 616.16 392.764 616.107 392.562C616.062 392.354 616.023 392.175 615.99 392.025H615.922C615.896 392.175 615.86 392.354 615.814 392.562C615.769 392.764 615.714 392.986 615.648 393.227C615.59 393.467 615.525 393.721 615.453 393.988C615.382 394.249 615.3 394.512 615.209 394.779L613.217 400.98H611.391L608.441 390.277H610.121L611.664 396.186C611.768 396.576 611.866 396.964 611.957 397.348C612.055 397.725 612.136 398.083 612.201 398.422C612.273 398.754 612.325 399.044 612.357 399.291H612.436C612.475 399.128 612.517 398.933 612.562 398.705C612.615 398.477 612.67 398.236 612.729 397.982C612.794 397.722 612.862 397.465 612.934 397.211C613.005 396.951 613.077 396.706 613.148 396.479L615.121 390.277H616.869L618.773 396.469C618.871 396.781 618.965 397.107 619.057 397.445C619.154 397.784 619.242 398.113 619.32 398.432C619.398 398.744 619.454 399.024 619.486 399.271H619.564C619.59 399.05 619.639 398.777 619.711 398.451C619.783 398.126 619.864 397.768 619.955 397.377C620.053 396.986 620.154 396.589 620.258 396.186L621.82 390.277H623.471L620.512 400.98H618.627ZM634.652 395.629C634.652 396.508 634.538 397.292 634.311 397.982C634.083 398.673 633.754 399.255 633.324 399.73C632.895 400.206 632.374 400.57 631.762 400.824C631.156 401.072 630.469 401.195 629.701 401.195C628.985 401.195 628.327 401.072 627.729 400.824C627.136 400.57 626.622 400.206 626.186 399.73C625.756 399.255 625.421 398.673 625.18 397.982C624.945 397.292 624.828 396.508 624.828 395.629C624.828 394.457 625.027 393.461 625.424 392.641C625.821 391.814 626.387 391.186 627.123 390.756C627.865 390.32 628.747 390.102 629.77 390.102C630.746 390.102 631.599 390.32 632.328 390.756C633.064 391.192 633.633 391.824 634.037 392.65C634.447 393.471 634.652 394.464 634.652 395.629ZM626.508 395.629C626.508 396.488 626.622 397.234 626.85 397.865C627.077 398.497 627.429 398.985 627.904 399.33C628.38 399.675 628.992 399.848 629.74 399.848C630.482 399.848 631.091 399.675 631.566 399.33C632.048 398.985 632.403 398.497 632.631 397.865C632.859 397.234 632.973 396.488 632.973 395.629C632.973 394.776 632.859 394.04 632.631 393.422C632.403 392.797 632.051 392.315 631.576 391.977C631.101 391.638 630.486 391.469 629.73 391.469C628.617 391.469 627.8 391.837 627.279 392.572C626.765 393.308 626.508 394.327 626.508 395.629ZM642.318 390.102C642.533 390.102 642.758 390.115 642.992 390.141C643.227 390.16 643.435 390.189 643.617 390.229L643.412 391.732C643.236 391.687 643.041 391.651 642.826 391.625C642.611 391.599 642.41 391.586 642.221 391.586C641.791 391.586 641.384 391.674 641 391.85C640.622 392.019 640.29 392.266 640.004 392.592C639.717 392.911 639.493 393.298 639.33 393.754C639.167 394.203 639.086 394.704 639.086 395.258V401H637.455V390.297H638.803L638.979 392.27H639.047C639.268 391.872 639.535 391.511 639.848 391.186C640.16 390.854 640.521 390.59 640.932 390.395C641.348 390.199 641.811 390.102 642.318 390.102ZM649.447 401.195C648.093 401.195 647.019 400.733 646.225 399.809C645.437 398.884 645.043 397.51 645.043 395.688C645.043 393.845 645.447 392.455 646.254 391.518C647.061 390.574 648.135 390.102 649.477 390.102C650.043 390.102 650.538 390.176 650.961 390.326C651.384 390.476 651.749 390.678 652.055 390.932C652.361 391.179 652.618 391.462 652.826 391.781H652.943C652.917 391.579 652.891 391.303 652.865 390.951C652.839 390.6 652.826 390.313 652.826 390.092V385.805H654.447V401H653.139L652.895 399.477H652.826C652.624 399.796 652.367 400.085 652.055 400.346C651.749 400.606 651.381 400.814 650.951 400.971C650.528 401.12 650.027 401.195 649.447 401.195ZM649.701 399.848C650.847 399.848 651.658 399.522 652.133 398.871C652.608 398.22 652.846 397.253 652.846 395.971V395.678C652.846 394.317 652.618 393.272 652.162 392.543C651.713 391.814 650.893 391.449 649.701 391.449C648.705 391.449 647.96 391.833 647.465 392.602C646.97 393.363 646.723 394.405 646.723 395.727C646.723 397.042 646.967 398.057 647.455 398.773C647.95 399.49 648.699 399.848 649.701 399.848Z" fill="black"/>
<rect x="566" y="407" width="308" height="31" fill="#F3F3F3"/>
<path d="M577.391 418.281C578.458 418.281 579.31 418.648 579.945 419.383C580.581 420.117 580.898 421.221 580.898 422.695C580.898 423.669 580.753 424.487 580.461 425.148C580.169 425.81 579.758 426.31 579.227 426.648C578.701 426.987 578.078 427.156 577.359 427.156C576.906 427.156 576.508 427.096 576.164 426.977C575.82 426.857 575.526 426.695 575.281 426.492C575.036 426.289 574.833 426.068 574.672 425.828H574.578C574.594 426.031 574.612 426.276 574.633 426.562C574.659 426.849 574.672 427.099 574.672 427.312V430.828H573.367V418.438H574.438L574.609 419.703H574.672C574.839 419.443 575.042 419.206 575.281 418.992C575.521 418.773 575.812 418.602 576.156 418.477C576.505 418.346 576.917 418.281 577.391 418.281ZM577.164 419.375C576.57 419.375 576.091 419.49 575.727 419.719C575.367 419.948 575.104 420.292 574.938 420.75C574.771 421.203 574.682 421.773 574.672 422.461V422.711C574.672 423.435 574.75 424.047 574.906 424.547C575.068 425.047 575.331 425.427 575.695 425.688C576.065 425.948 576.56 426.078 577.18 426.078C577.711 426.078 578.154 425.935 578.508 425.648C578.862 425.362 579.125 424.964 579.297 424.453C579.474 423.938 579.562 423.346 579.562 422.68C579.562 421.669 579.365 420.867 578.969 420.273C578.578 419.674 577.977 419.375 577.164 419.375ZM586.367 418.297C587.388 418.297 588.146 418.526 588.641 418.984C589.135 419.443 589.383 420.174 589.383 421.18V427H588.438L588.188 425.734H588.125C587.885 426.047 587.635 426.31 587.375 426.523C587.115 426.732 586.812 426.891 586.469 427C586.13 427.104 585.714 427.156 585.219 427.156C584.698 427.156 584.234 427.065 583.828 426.883C583.427 426.701 583.109 426.424 582.875 426.055C582.646 425.685 582.531 425.216 582.531 424.648C582.531 423.794 582.87 423.138 583.547 422.68C584.224 422.221 585.255 421.971 586.641 421.93L588.117 421.867V421.344C588.117 420.604 587.958 420.086 587.641 419.789C587.323 419.492 586.875 419.344 586.297 419.344C585.849 419.344 585.422 419.409 585.016 419.539C584.609 419.669 584.224 419.823 583.859 420L583.461 419.016C583.846 418.818 584.289 418.648 584.789 418.508C585.289 418.367 585.815 418.297 586.367 418.297ZM588.102 422.781L586.797 422.836C585.729 422.878 584.977 423.052 584.539 423.359C584.102 423.667 583.883 424.102 583.883 424.664C583.883 425.154 584.031 425.516 584.328 425.75C584.625 425.984 585.018 426.102 585.508 426.102C586.268 426.102 586.891 425.891 587.375 425.469C587.859 425.047 588.102 424.414 588.102 423.57V422.781ZM597.594 424.656C597.594 425.203 597.456 425.664 597.18 426.039C596.909 426.409 596.518 426.688 596.008 426.875C595.503 427.062 594.898 427.156 594.195 427.156C593.596 427.156 593.078 427.109 592.641 427.016C592.203 426.922 591.82 426.789 591.492 426.617V425.422C591.841 425.594 592.258 425.75 592.742 425.891C593.227 426.031 593.721 426.102 594.227 426.102C594.966 426.102 595.503 425.982 595.836 425.742C596.169 425.503 596.336 425.177 596.336 424.766C596.336 424.531 596.268 424.326 596.133 424.148C596.003 423.966 595.781 423.792 595.469 423.625C595.156 423.453 594.724 423.266 594.172 423.062C593.625 422.854 593.151 422.648 592.75 422.445C592.354 422.237 592.047 421.984 591.828 421.688C591.615 421.391 591.508 421.005 591.508 420.531C591.508 419.807 591.799 419.253 592.383 418.867C592.971 418.477 593.742 418.281 594.695 418.281C595.211 418.281 595.693 418.333 596.141 418.438C596.594 418.536 597.016 418.672 597.406 418.844L596.969 419.883C596.615 419.732 596.237 419.604 595.836 419.5C595.435 419.396 595.026 419.344 594.609 419.344C594.01 419.344 593.549 419.443 593.227 419.641C592.909 419.839 592.75 420.109 592.75 420.453C592.75 420.719 592.823 420.938 592.969 421.109C593.12 421.281 593.359 421.443 593.688 421.594C594.016 421.745 594.448 421.922 594.984 422.125C595.521 422.323 595.984 422.529 596.375 422.742C596.766 422.951 597.065 423.206 597.273 423.508C597.487 423.805 597.594 424.188 597.594 424.656ZM605.219 424.656C605.219 425.203 605.081 425.664 604.805 426.039C604.534 426.409 604.143 426.688 603.633 426.875C603.128 427.062 602.523 427.156 601.82 427.156C601.221 427.156 600.703 427.109 600.266 427.016C599.828 426.922 599.445 426.789 599.117 426.617V425.422C599.466 425.594 599.883 425.75 600.367 425.891C600.852 426.031 601.346 426.102 601.852 426.102C602.591 426.102 603.128 425.982 603.461 425.742C603.794 425.503 603.961 425.177 603.961 424.766C603.961 424.531 603.893 424.326 603.758 424.148C603.628 423.966 603.406 423.792 603.094 423.625C602.781 423.453 602.349 423.266 601.797 423.062C601.25 422.854 600.776 422.648 600.375 422.445C599.979 422.237 599.672 421.984 599.453 421.688C599.24 421.391 599.133 421.005 599.133 420.531C599.133 419.807 599.424 419.253 600.008 418.867C600.596 418.477 601.367 418.281 602.32 418.281C602.836 418.281 603.318 418.333 603.766 418.438C604.219 418.536 604.641 418.672 605.031 418.844L604.594 419.883C604.24 419.732 603.862 419.604 603.461 419.5C603.06 419.396 602.651 419.344 602.234 419.344C601.635 419.344 601.174 419.443 600.852 419.641C600.534 419.839 600.375 420.109 600.375 420.453C600.375 420.719 600.448 420.938 600.594 421.109C600.745 421.281 600.984 421.443 601.312 421.594C601.641 421.745 602.073 421.922 602.609 422.125C603.146 422.323 603.609 422.529 604 422.742C604.391 422.951 604.69 423.206 604.898 423.508C605.112 423.805 605.219 424.188 605.219 424.656ZM614.273 426.984L612.75 422C612.682 421.786 612.617 421.578 612.555 421.375C612.497 421.167 612.443 420.969 612.391 420.781C612.344 420.589 612.299 420.411 612.258 420.25C612.221 420.083 612.19 419.94 612.164 419.82H612.109C612.089 419.94 612.06 420.083 612.023 420.25C611.987 420.411 611.943 420.589 611.891 420.781C611.844 420.974 611.792 421.177 611.734 421.391C611.677 421.599 611.612 421.81 611.539 422.023L609.945 426.984H608.484L606.125 418.422H607.469L608.703 423.148C608.786 423.461 608.865 423.771 608.938 424.078C609.016 424.38 609.081 424.667 609.133 424.938C609.19 425.203 609.232 425.435 609.258 425.633H609.32C609.352 425.503 609.385 425.346 609.422 425.164C609.464 424.982 609.508 424.789 609.555 424.586C609.607 424.378 609.661 424.172 609.719 423.969C609.776 423.76 609.833 423.565 609.891 423.383L611.469 418.422H612.867L614.391 423.375C614.469 423.625 614.544 423.885 614.617 424.156C614.695 424.427 614.766 424.69 614.828 424.945C614.891 425.195 614.935 425.419 614.961 425.617H615.023C615.044 425.44 615.083 425.221 615.141 424.961C615.198 424.701 615.263 424.414 615.336 424.102C615.414 423.789 615.495 423.471 615.578 423.148L616.828 418.422H618.148L615.781 426.984H614.273ZM627.094 422.703C627.094 423.406 627.003 424.034 626.82 424.586C626.638 425.138 626.375 425.604 626.031 425.984C625.688 426.365 625.271 426.656 624.781 426.859C624.297 427.057 623.747 427.156 623.133 427.156C622.56 427.156 622.034 427.057 621.555 426.859C621.081 426.656 620.669 426.365 620.32 425.984C619.977 425.604 619.708 425.138 619.516 424.586C619.328 424.034 619.234 423.406 619.234 422.703C619.234 421.766 619.393 420.969 619.711 420.312C620.029 419.651 620.482 419.148 621.07 418.805C621.664 418.456 622.37 418.281 623.188 418.281C623.969 418.281 624.651 418.456 625.234 418.805C625.823 419.154 626.279 419.659 626.602 420.32C626.93 420.977 627.094 421.771 627.094 422.703ZM620.578 422.703C620.578 423.391 620.669 423.987 620.852 424.492C621.034 424.997 621.315 425.388 621.695 425.664C622.076 425.94 622.565 426.078 623.164 426.078C623.758 426.078 624.245 425.94 624.625 425.664C625.01 425.388 625.294 424.997 625.477 424.492C625.659 423.987 625.75 423.391 625.75 422.703C625.75 422.021 625.659 421.432 625.477 420.938C625.294 420.438 625.013 420.052 624.633 419.781C624.253 419.51 623.76 419.375 623.156 419.375C622.266 419.375 621.612 419.669 621.195 420.258C620.784 420.846 620.578 421.661 620.578 422.703ZM633.227 418.281C633.398 418.281 633.578 418.292 633.766 418.312C633.953 418.328 634.12 418.352 634.266 418.383L634.102 419.586C633.961 419.549 633.805 419.521 633.633 419.5C633.461 419.479 633.299 419.469 633.148 419.469C632.805 419.469 632.479 419.539 632.172 419.68C631.87 419.815 631.604 420.013 631.375 420.273C631.146 420.529 630.966 420.839 630.836 421.203C630.706 421.562 630.641 421.964 630.641 422.406V427H629.336V418.438H630.414L630.555 420.016H630.609C630.786 419.698 631 419.409 631.25 419.148C631.5 418.883 631.789 418.672 632.117 418.516C632.451 418.359 632.82 418.281 633.227 418.281ZM638.93 427.156C637.846 427.156 636.987 426.786 636.352 426.047C635.721 425.307 635.406 424.208 635.406 422.75C635.406 421.276 635.729 420.164 636.375 419.414C637.021 418.659 637.88 418.281 638.953 418.281C639.406 418.281 639.802 418.341 640.141 418.461C640.479 418.581 640.771 418.742 641.016 418.945C641.26 419.143 641.466 419.37 641.633 419.625H641.727C641.706 419.464 641.685 419.242 641.664 418.961C641.643 418.68 641.633 418.451 641.633 418.273V414.844H642.93V427H641.883L641.688 425.781H641.633C641.471 426.036 641.266 426.268 641.016 426.477C640.771 426.685 640.477 426.852 640.133 426.977C639.794 427.096 639.393 427.156 638.93 427.156ZM639.133 426.078C640.049 426.078 640.698 425.818 641.078 425.297C641.458 424.776 641.648 424.003 641.648 422.977V422.742C641.648 421.654 641.466 420.818 641.102 420.234C640.742 419.651 640.086 419.359 639.133 419.359C638.336 419.359 637.74 419.667 637.344 420.281C636.948 420.891 636.75 421.724 636.75 422.781C636.75 423.833 636.945 424.646 637.336 425.219C637.732 425.792 638.331 426.078 639.133 426.078Z" fill="#A9A9A9"/>
<path d="M578.754 297.723V306.961C578.754 307.97 578.549 308.868 578.139 309.656C577.735 310.444 577.123 311.066 576.303 311.521C575.482 311.971 574.454 312.195 573.217 312.195C571.452 312.195 570.108 311.717 569.184 310.76C568.266 309.803 567.807 308.523 567.807 306.922V297.723H569.477V306.971C569.477 308.182 569.796 309.116 570.434 309.773C571.078 310.431 572.038 310.76 573.314 310.76C574.187 310.76 574.9 310.604 575.453 310.291C576.013 309.972 576.426 309.529 576.693 308.963C576.967 308.39 577.104 307.729 577.104 306.98V297.723H578.754ZM589.223 309.07C589.223 309.754 589.05 310.33 588.705 310.799C588.367 311.261 587.878 311.609 587.24 311.844C586.609 312.078 585.854 312.195 584.975 312.195C584.226 312.195 583.578 312.137 583.031 312.02C582.484 311.902 582.006 311.736 581.596 311.521V310.027C582.032 310.242 582.553 310.438 583.158 310.613C583.764 310.789 584.382 310.877 585.014 310.877C585.938 310.877 586.609 310.727 587.025 310.428C587.442 310.128 587.65 309.721 587.65 309.207C587.65 308.914 587.566 308.657 587.396 308.436C587.234 308.208 586.957 307.99 586.566 307.781C586.176 307.566 585.635 307.332 584.945 307.078C584.262 306.818 583.669 306.561 583.168 306.307C582.673 306.046 582.289 305.73 582.016 305.359C581.749 304.988 581.615 304.507 581.615 303.914C581.615 303.009 581.98 302.316 582.709 301.834C583.445 301.346 584.408 301.102 585.6 301.102C586.244 301.102 586.846 301.167 587.406 301.297C587.973 301.421 588.5 301.59 588.988 301.805L588.441 303.104C587.999 302.915 587.527 302.755 587.025 302.625C586.524 302.495 586.013 302.43 585.492 302.43C584.743 302.43 584.167 302.553 583.764 302.801C583.367 303.048 583.168 303.387 583.168 303.816C583.168 304.148 583.259 304.422 583.441 304.637C583.63 304.852 583.93 305.053 584.34 305.242C584.75 305.431 585.29 305.652 585.961 305.906C586.632 306.154 587.211 306.411 587.699 306.678C588.188 306.938 588.562 307.257 588.822 307.635C589.089 308.006 589.223 308.484 589.223 309.07ZM595.951 301.102C596.863 301.102 597.644 301.303 598.295 301.707C598.946 302.111 599.444 302.677 599.789 303.406C600.134 304.129 600.307 304.975 600.307 305.945V306.951H592.914C592.934 308.208 593.246 309.165 593.852 309.822C594.457 310.48 595.31 310.809 596.41 310.809C597.087 310.809 597.686 310.747 598.207 310.623C598.728 310.499 599.268 310.317 599.828 310.076V311.502C599.288 311.743 598.751 311.919 598.217 312.029C597.689 312.14 597.064 312.195 596.342 312.195C595.313 312.195 594.415 311.987 593.646 311.57C592.885 311.147 592.292 310.529 591.869 309.715C591.446 308.901 591.234 307.905 591.234 306.727C591.234 305.574 591.426 304.578 591.811 303.738C592.201 302.892 592.748 302.241 593.451 301.785C594.161 301.329 594.994 301.102 595.951 301.102ZM595.932 302.43C595.066 302.43 594.376 302.713 593.861 303.279C593.347 303.846 593.041 304.637 592.943 305.652H598.607C598.601 305.014 598.5 304.454 598.305 303.973C598.116 303.484 597.826 303.107 597.436 302.84C597.045 302.566 596.544 302.43 595.932 302.43ZM607.924 301.102C608.139 301.102 608.363 301.115 608.598 301.141C608.832 301.16 609.04 301.189 609.223 301.229L609.018 302.732C608.842 302.687 608.646 302.651 608.432 302.625C608.217 302.599 608.015 302.586 607.826 302.586C607.396 302.586 606.99 302.674 606.605 302.85C606.228 303.019 605.896 303.266 605.609 303.592C605.323 303.911 605.098 304.298 604.936 304.754C604.773 305.203 604.691 305.704 604.691 306.258V312H603.061V301.297H604.408L604.584 303.27H604.652C604.874 302.872 605.141 302.511 605.453 302.186C605.766 301.854 606.127 301.59 606.537 301.395C606.954 301.199 607.416 301.102 607.924 301.102ZM616.312 301.102C617.582 301.102 618.542 301.414 619.193 302.039C619.844 302.658 620.17 303.654 620.17 305.027V312H618.568V305.135C618.568 304.243 618.363 303.576 617.953 303.133C617.549 302.69 616.928 302.469 616.088 302.469C614.903 302.469 614.07 302.804 613.588 303.475C613.106 304.145 612.865 305.118 612.865 306.395V312H611.244V301.297H612.553L612.797 302.84H612.885C613.113 302.462 613.402 302.146 613.754 301.893C614.105 301.632 614.499 301.437 614.936 301.307C615.372 301.17 615.831 301.102 616.312 301.102ZM627.514 301.121C628.79 301.121 629.737 301.408 630.355 301.98C630.974 302.553 631.283 303.468 631.283 304.725V312H630.102L629.789 310.418H629.711C629.411 310.809 629.099 311.137 628.773 311.404C628.448 311.665 628.07 311.863 627.641 312C627.217 312.13 626.697 312.195 626.078 312.195C625.427 312.195 624.848 312.081 624.34 311.854C623.839 311.626 623.441 311.281 623.148 310.818C622.862 310.356 622.719 309.77 622.719 309.061C622.719 307.993 623.142 307.173 623.988 306.6C624.835 306.027 626.124 305.714 627.855 305.662L629.701 305.584V304.93C629.701 304.005 629.503 303.357 629.105 302.986C628.708 302.615 628.148 302.43 627.426 302.43C626.866 302.43 626.332 302.511 625.824 302.674C625.316 302.837 624.835 303.029 624.379 303.25L623.881 302.02C624.363 301.772 624.916 301.561 625.541 301.385C626.166 301.209 626.824 301.121 627.514 301.121ZM629.682 306.727L628.051 306.795C626.716 306.847 625.775 307.065 625.229 307.449C624.682 307.833 624.408 308.377 624.408 309.08C624.408 309.692 624.594 310.145 624.965 310.438C625.336 310.73 625.827 310.877 626.439 310.877C627.39 310.877 628.168 310.613 628.773 310.086C629.379 309.559 629.682 308.768 629.682 307.713V306.727ZM646.244 301.102C647.423 301.102 648.311 301.411 648.91 302.029C649.509 302.641 649.809 303.628 649.809 304.988V312H648.207V305.066C648.207 304.201 648.018 303.553 647.641 303.123C647.27 302.687 646.716 302.469 645.98 302.469C644.945 302.469 644.193 302.768 643.725 303.367C643.256 303.966 643.021 304.848 643.021 306.014V312H641.41V305.066C641.41 304.487 641.326 304.005 641.156 303.621C640.993 303.237 640.746 302.951 640.414 302.762C640.089 302.566 639.675 302.469 639.174 302.469C638.464 302.469 637.895 302.615 637.465 302.908C637.035 303.201 636.723 303.637 636.527 304.217C636.339 304.79 636.244 305.496 636.244 306.336V312H634.623V301.297H635.932L636.176 302.811H636.264C636.479 302.439 636.749 302.127 637.074 301.873C637.4 301.619 637.764 301.427 638.168 301.297C638.572 301.167 639.001 301.102 639.457 301.102C640.271 301.102 640.951 301.255 641.498 301.561C642.051 301.86 642.452 302.319 642.699 302.938H642.787C643.139 302.319 643.62 301.86 644.232 301.561C644.844 301.255 645.515 301.102 646.244 301.102ZM657.26 301.102C658.171 301.102 658.952 301.303 659.604 301.707C660.255 302.111 660.753 302.677 661.098 303.406C661.443 304.129 661.615 304.975 661.615 305.945V306.951H654.223C654.242 308.208 654.555 309.165 655.16 309.822C655.766 310.48 656.618 310.809 657.719 310.809C658.396 310.809 658.995 310.747 659.516 310.623C660.036 310.499 660.577 310.317 661.137 310.076V311.502C660.596 311.743 660.059 311.919 659.525 312.029C658.998 312.14 658.373 312.195 657.65 312.195C656.622 312.195 655.723 311.987 654.955 311.57C654.193 311.147 653.601 310.529 653.178 309.715C652.755 308.901 652.543 307.905 652.543 306.727C652.543 305.574 652.735 304.578 653.119 303.738C653.51 302.892 654.057 302.241 654.76 301.785C655.469 301.329 656.303 301.102 657.26 301.102ZM657.24 302.43C656.374 302.43 655.684 302.713 655.17 303.279C654.656 303.846 654.35 304.637 654.252 305.652H659.916C659.91 305.014 659.809 304.454 659.613 303.973C659.424 303.484 659.135 303.107 658.744 302.84C658.354 302.566 657.852 302.43 657.24 302.43Z" fill="black"/>
<rect x="566" y="318" width="308" height="31" fill="#F3F3F3"/>
<path d="M580.438 329.438V338H579.375L579.188 336.797H579.117C578.94 337.094 578.711 337.344 578.43 337.547C578.148 337.75 577.831 337.901 577.477 338C577.128 338.104 576.755 338.156 576.359 338.156C575.682 338.156 575.115 338.047 574.656 337.828C574.198 337.609 573.852 337.271 573.617 336.812C573.388 336.354 573.273 335.766 573.273 335.047V329.438H574.586V334.953C574.586 335.667 574.747 336.201 575.07 336.555C575.393 336.904 575.885 337.078 576.547 337.078C577.182 337.078 577.688 336.958 578.062 336.719C578.443 336.479 578.716 336.128 578.883 335.664C579.049 335.195 579.133 334.622 579.133 333.945V329.438H580.438ZM588.719 335.656C588.719 336.203 588.581 336.664 588.305 337.039C588.034 337.409 587.643 337.688 587.133 337.875C586.628 338.062 586.023 338.156 585.32 338.156C584.721 338.156 584.203 338.109 583.766 338.016C583.328 337.922 582.945 337.789 582.617 337.617V336.422C582.966 336.594 583.383 336.75 583.867 336.891C584.352 337.031 584.846 337.102 585.352 337.102C586.091 337.102 586.628 336.982 586.961 336.742C587.294 336.503 587.461 336.177 587.461 335.766C587.461 335.531 587.393 335.326 587.258 335.148C587.128 334.966 586.906 334.792 586.594 334.625C586.281 334.453 585.849 334.266 585.297 334.062C584.75 333.854 584.276 333.648 583.875 333.445C583.479 333.237 583.172 332.984 582.953 332.688C582.74 332.391 582.633 332.005 582.633 331.531C582.633 330.807 582.924 330.253 583.508 329.867C584.096 329.477 584.867 329.281 585.82 329.281C586.336 329.281 586.818 329.333 587.266 329.438C587.719 329.536 588.141 329.672 588.531 329.844L588.094 330.883C587.74 330.732 587.362 330.604 586.961 330.5C586.56 330.396 586.151 330.344 585.734 330.344C585.135 330.344 584.674 330.443 584.352 330.641C584.034 330.839 583.875 331.109 583.875 331.453C583.875 331.719 583.948 331.938 584.094 332.109C584.245 332.281 584.484 332.443 584.812 332.594C585.141 332.745 585.573 332.922 586.109 333.125C586.646 333.323 587.109 333.529 587.5 333.742C587.891 333.951 588.19 334.206 588.398 334.508C588.612 334.805 588.719 335.188 588.719 335.656ZM594.102 329.281C594.831 329.281 595.456 329.443 595.977 329.766C596.497 330.089 596.896 330.542 597.172 331.125C597.448 331.703 597.586 332.38 597.586 333.156V333.961H591.672C591.688 334.966 591.938 335.732 592.422 336.258C592.906 336.784 593.589 337.047 594.469 337.047C595.01 337.047 595.49 336.997 595.906 336.898C596.323 336.799 596.755 336.654 597.203 336.461V337.602C596.771 337.794 596.341 337.935 595.914 338.023C595.492 338.112 594.992 338.156 594.414 338.156C593.591 338.156 592.872 337.99 592.258 337.656C591.648 337.318 591.174 336.823 590.836 336.172C590.497 335.521 590.328 334.724 590.328 333.781C590.328 332.859 590.482 332.062 590.789 331.391C591.102 330.714 591.539 330.193 592.102 329.828C592.669 329.464 593.336 329.281 594.102 329.281ZM594.086 330.344C593.393 330.344 592.841 330.57 592.43 331.023C592.018 331.477 591.773 332.109 591.695 332.922H596.227C596.221 332.411 596.141 331.964 595.984 331.578C595.833 331.188 595.602 330.885 595.289 330.672C594.977 330.453 594.576 330.344 594.086 330.344ZM603.68 329.281C603.852 329.281 604.031 329.292 604.219 329.312C604.406 329.328 604.573 329.352 604.719 329.383L604.555 330.586C604.414 330.549 604.258 330.521 604.086 330.5C603.914 330.479 603.753 330.469 603.602 330.469C603.258 330.469 602.932 330.539 602.625 330.68C602.323 330.815 602.057 331.013 601.828 331.273C601.599 331.529 601.419 331.839 601.289 332.203C601.159 332.562 601.094 332.964 601.094 333.406V338H599.789V329.438H600.867L601.008 331.016H601.062C601.24 330.698 601.453 330.409 601.703 330.148C601.953 329.883 602.242 329.672 602.57 329.516C602.904 329.359 603.273 329.281 603.68 329.281ZM610.391 329.281C611.406 329.281 612.174 329.531 612.695 330.031C613.216 330.526 613.477 331.323 613.477 332.422V338H612.195V332.508C612.195 331.794 612.031 331.26 611.703 330.906C611.38 330.552 610.883 330.375 610.211 330.375C609.263 330.375 608.596 330.643 608.211 331.18C607.826 331.716 607.633 332.495 607.633 333.516V338H606.336V329.438H607.383L607.578 330.672H607.648C607.831 330.37 608.062 330.117 608.344 329.914C608.625 329.706 608.94 329.549 609.289 329.445C609.638 329.336 610.005 329.281 610.391 329.281ZM619.352 329.297C620.372 329.297 621.13 329.526 621.625 329.984C622.12 330.443 622.367 331.174 622.367 332.18V338H621.422L621.172 336.734H621.109C620.87 337.047 620.62 337.31 620.359 337.523C620.099 337.732 619.797 337.891 619.453 338C619.115 338.104 618.698 338.156 618.203 338.156C617.682 338.156 617.219 338.065 616.812 337.883C616.411 337.701 616.094 337.424 615.859 337.055C615.63 336.685 615.516 336.216 615.516 335.648C615.516 334.794 615.854 334.138 616.531 333.68C617.208 333.221 618.24 332.971 619.625 332.93L621.102 332.867V332.344C621.102 331.604 620.943 331.086 620.625 330.789C620.307 330.492 619.859 330.344 619.281 330.344C618.833 330.344 618.406 330.409 618 330.539C617.594 330.669 617.208 330.823 616.844 331L616.445 330.016C616.831 329.818 617.273 329.648 617.773 329.508C618.273 329.367 618.799 329.297 619.352 329.297ZM621.086 333.781L619.781 333.836C618.714 333.878 617.961 334.052 617.523 334.359C617.086 334.667 616.867 335.102 616.867 335.664C616.867 336.154 617.016 336.516 617.312 336.75C617.609 336.984 618.003 337.102 618.492 337.102C619.253 337.102 619.875 336.891 620.359 336.469C620.844 336.047 621.086 335.414 621.086 334.57V333.781ZM634.336 329.281C635.279 329.281 635.99 329.529 636.469 330.023C636.948 330.513 637.188 331.302 637.188 332.391V338H635.906V332.453C635.906 331.76 635.755 331.242 635.453 330.898C635.156 330.549 634.714 330.375 634.125 330.375C633.297 330.375 632.695 330.615 632.32 331.094C631.945 331.573 631.758 332.279 631.758 333.211V338H630.469V332.453C630.469 331.99 630.401 331.604 630.266 331.297C630.135 330.99 629.938 330.76 629.672 330.609C629.411 330.453 629.081 330.375 628.68 330.375C628.112 330.375 627.656 330.492 627.312 330.727C626.969 330.961 626.719 331.31 626.562 331.773C626.411 332.232 626.336 332.797 626.336 333.469V338H625.039V329.438H626.086L626.281 330.648H626.352C626.523 330.352 626.74 330.102 627 329.898C627.26 329.695 627.552 329.542 627.875 329.438C628.198 329.333 628.542 329.281 628.906 329.281C629.557 329.281 630.102 329.404 630.539 329.648C630.982 329.888 631.302 330.255 631.5 330.75H631.57C631.852 330.255 632.237 329.888 632.727 329.648C633.216 329.404 633.753 329.281 634.336 329.281ZM643.148 329.281C643.878 329.281 644.503 329.443 645.023 329.766C645.544 330.089 645.943 330.542 646.219 331.125C646.495 331.703 646.633 332.38 646.633 333.156V333.961H640.719C640.734 334.966 640.984 335.732 641.469 336.258C641.953 336.784 642.635 337.047 643.516 337.047C644.057 337.047 644.536 336.997 644.953 336.898C645.37 336.799 645.802 336.654 646.25 336.461V337.602C645.818 337.794 645.388 337.935 644.961 338.023C644.539 338.112 644.039 338.156 643.461 338.156C642.638 338.156 641.919 337.99 641.305 337.656C640.695 337.318 640.221 336.823 639.883 336.172C639.544 335.521 639.375 334.724 639.375 333.781C639.375 332.859 639.529 332.062 639.836 331.391C640.148 330.714 640.586 330.193 641.148 329.828C641.716 329.464 642.383 329.281 643.148 329.281ZM643.133 330.344C642.44 330.344 641.888 330.57 641.477 331.023C641.065 331.477 640.82 332.109 640.742 332.922H645.273C645.268 332.411 645.188 331.964 645.031 331.578C644.88 331.188 644.648 330.885 644.336 330.672C644.023 330.453 643.622 330.344 643.133 330.344Z" fill="#A9A9A9"/>
<g clip-path="url(#clip1_2_2)">
<path d="M862.238 222.396C861.864 223.203 861.491 223.999 861.119 224.784C860.538 226.004 859.965 227.2 859.399 228.372C859.147 228.891 858.895 229.401 858.65 229.911C855.875 235.58 853.284 240.595 851.084 244.718C849.087 248.455 846.122 251.585 842.5 253.782C838.877 255.979 834.731 257.162 830.494 257.205L781.562 257.738H781.045L776.851 257.783L773.263 257.822L762.26 257.941H761.814L756.213 258.002H756.042L721.517 258.377L690.699 258.699L687.114 258.738L664.85 258.98H664.824L650.385 259.135H650.23L604.572 259.629L590.914 259.777C589.751 259.79 588.588 259.732 587.432 259.603V259.603C587.038 259.558 586.645 259.506 586.254 259.445C579.884 258.461 574.043 255.325 569.705 250.559C563.829 244.095 559.554 236.555 556.682 228.372C556.267 227.191 555.88 225.995 555.52 224.784C545.579 191.178 557.698 147.821 579.511 118.807C580.425 117.594 581.354 116.411 582.298 115.258L582.321 115.232C589.029 106.997 596.551 100.118 604.563 95.2264C618.76 86.5434 634.49 84.0976 649.962 91.3867C663.052 97.5561 675.275 100.457 687.123 101.244C688.321 101.322 689.518 101.38 690.708 101.415C717.887 102.27 743.358 92.4773 773.269 86.1562C774.46 85.9045 775.654 85.6561 776.857 85.4205C798.195 81.1742 821.866 78.9349 850.016 83.6427C852.94 84.1204 855.826 84.8106 858.65 85.7077C859.891 86.1078 861.087 86.5381 862.238 86.9984C875.674 92.4644 883.002 102.564 886.116 115.219C886.41 116.393 886.665 117.588 886.88 118.804C892.401 149.244 876.232 192.424 862.238 222.396Z" fill="#F2F2F2"/>
<path opacity="0.1" d="M712.372 224.784C712.242 225.991 712.041 227.189 711.769 228.372H742.003V224.784H712.372ZM687.123 245.051L690.708 245.022V236.158C689.479 236.103 688.282 236.048 687.123 235.99V245.051ZM611.968 224.784V228.372H676.017V224.784H611.968ZM886.132 115.232H862.254V87.0016C861.104 86.5348 859.908 86.1046 858.666 85.7109V115.232H776.857V85.4109C775.654 85.6464 774.46 85.8949 773.269 86.1465V115.232H690.708V101.405C689.518 101.37 688.321 101.312 687.123 101.234V115.232H604.563V95.2264C596.551 100.118 589.029 106.997 582.321 115.232H582.298V115.258C581.352 116.419 580.423 117.602 579.511 118.807H582.298V224.784H555.517C555.874 225.995 556.261 227.191 556.679 228.372H582.295V258.58C583.584 258.974 584.9 259.275 586.232 259.48C586.622 259.542 587.016 259.593 587.41 259.638C588.565 259.768 589.728 259.826 590.891 259.813L604.55 259.664V228.365H687.123V258.764L690.708 258.725V228.372H773.269V257.851L776.857 257.812V228.372H858.65V229.911C858.895 229.401 859.147 228.891 859.399 228.372C859.965 227.2 860.538 226.004 861.119 224.784C861.491 224.001 861.864 223.205 862.238 222.396V118.82H886.897C886.679 117.596 886.424 116.4 886.132 115.232ZM604.563 224.784V118.807H687.123V224.784H604.563ZM690.715 224.784V118.807H773.269V224.784H690.715ZM858.657 224.784H776.857V118.807H858.65L858.657 224.784Z" fill="black"/>
<path d="M830.491 253.191V257.386L781.471 257.838L780.949 257.848L762.318 258.019L761.873 258.025L756.21 258.073H756.042L721.523 258.393L664.859 258.919H664.811L650.404 259.054L650.249 259.058L586.232 259.645V254.805L601.284 245.77L631.486 245.518L632.131 245.515L632.344 245.512L632.99 245.502L647.49 245.383L648.139 245.38L648.345 245.376L648.991 245.373L653.64 245.335L653.763 245.331L665.234 245.234H665.327L754.835 244.479L757.026 244.463H757.246L758.917 244.447L771.065 244.347L771.711 244.337L772.308 244.331H772.617L776.396 244.302L777.144 244.292L778.148 244.286L781.294 244.257L786.286 244.215L786.931 244.208L788.054 244.202H788.264L812.37 243.995L830.491 253.191Z" fill="#65617D"/>
<path opacity="0.2" d="M830.491 253.191V257.386L781.471 257.838L780.949 257.848L762.318 258.019L761.873 258.025L756.21 258.073H756.042L721.523 258.393L664.859 258.919H664.811L650.404 259.054L650.249 259.058L586.232 259.645V254.805L601.284 245.77L631.486 245.518L632.131 245.515L632.344 245.512L632.99 245.502L647.49 245.383L648.139 245.38L648.345 245.376L648.991 245.373L653.64 245.335L653.763 245.331L665.234 245.234H665.327L754.835 244.479L757.026 244.463H757.246L758.917 244.447L771.065 244.347L771.711 244.337L772.308 244.331H772.617L776.396 244.302L777.144 244.292L778.148 244.286L781.294 244.257L786.286 244.215L786.931 244.208L788.054 244.202H788.264L812.37 243.995L830.491 253.191Z" fill="black"/>
<path d="M647.542 237.061V244.963C647.542 245.338 647.436 245.704 647.236 246.021C647.036 246.337 646.751 246.59 646.412 246.751C646.161 246.873 645.886 246.939 645.606 246.945L634.345 247.183C634.044 247.191 633.746 247.128 633.474 246.999C633.129 246.842 632.838 246.589 632.634 246.27C632.43 245.951 632.321 245.581 632.322 245.202V237.061H647.542Z" fill="#3F3D56"/>
<path opacity="0.1" d="M647.542 237.061V244.963C647.542 245.338 647.436 245.704 647.236 246.021C647.036 246.337 646.751 246.59 646.412 246.751C646.161 246.873 645.886 246.939 645.606 246.945L634.345 247.183C634.044 247.191 633.746 247.128 633.474 246.999C633.129 246.842 632.838 246.589 632.634 246.27C632.43 245.951 632.321 245.581 632.322 245.202V237.061H647.542Z" fill="black"/>
<path d="M648.187 237.061V244.963C648.187 245.338 648.081 245.704 647.881 246.021C647.681 246.337 647.396 246.59 647.058 246.751C646.806 246.873 646.531 246.939 646.251 246.945L634.99 247.183C634.689 247.191 634.391 247.128 634.119 246.999C633.775 246.842 633.483 246.589 633.279 246.27C633.075 245.951 632.967 245.581 632.967 245.202V237.061H648.187Z" fill="#3F3D56"/>
<path d="M786.931 237.058H771.711V247.222H786.931V237.058Z" fill="#3F3D56"/>
<path opacity="0.1" d="M786.931 237.058H771.711V247.222H786.931V237.058Z" fill="black"/>
<path d="M786.286 237.058H771.065V247.222H786.286V237.058Z" fill="#3F3D56"/>
<path opacity="0.1" d="M648.184 237.058V238.662L632.964 239.068V237.058H648.184Z" fill="black"/>
<path d="M675.049 181.788V236.061C675.045 236.392 674.914 236.709 674.683 236.947C674.452 237.184 674.138 237.323 673.807 237.336L611.968 238.981H611.952C611.615 238.977 611.293 238.841 611.055 238.603C610.817 238.365 610.681 238.043 610.677 237.707V181.788C610.681 181.452 610.817 181.13 611.055 180.892C611.293 180.654 611.615 180.518 611.952 180.514H673.775C674.111 180.518 674.433 180.654 674.671 180.892C674.909 181.13 675.045 181.452 675.049 181.788V181.788Z" fill="#65617D"/>
<path opacity="0.1" d="M611.968 180.514V238.981H611.952C611.615 238.977 611.293 238.841 611.055 238.603C610.817 238.365 610.681 238.043 610.677 237.707V181.788C610.681 181.452 610.817 181.13 611.055 180.892C611.293 180.654 611.615 180.518 611.952 180.514H611.968Z" fill="black"/>
<path d="M614.788 183.979H672.061V231.815L614.788 233.105V183.979Z" fill="#6C63FF"/>
<path opacity="0.1" d="M786.286 237.058V239.126L771.065 238.72V237.058H786.286Z" fill="black"/>
<path d="M806.375 181.788V237.707C806.371 238.046 806.233 238.37 805.991 238.609C805.75 238.847 805.424 238.981 805.084 238.981V238.981L743.232 237.336C742.901 237.323 742.587 237.184 742.356 236.947C742.125 236.709 741.994 236.392 741.99 236.061V181.788C741.994 181.452 742.13 181.13 742.368 180.892C742.606 180.654 742.928 180.518 743.264 180.514H805.087C805.426 180.515 805.751 180.649 805.992 180.887C806.233 181.126 806.371 181.449 806.375 181.788V181.788Z" fill="#65617D"/>
<path opacity="0.1" d="M806.375 181.788V237.707C806.371 238.046 806.233 238.37 805.991 238.609C805.75 238.847 805.424 238.981 805.084 238.981V238.981V180.514C805.424 180.514 805.75 180.648 805.991 180.886C806.233 181.125 806.371 181.449 806.375 181.788Z" fill="black"/>
<path d="M802.258 183.979H744.984V231.815L802.258 233.105V183.979Z" fill="#6C63FF"/>
<path d="M740.389 181.788V236.061C740.385 236.392 740.254 236.709 740.023 236.947C739.792 237.184 739.478 237.323 739.147 237.336L677.308 238.981C676.968 238.981 676.642 238.847 676.401 238.609C676.159 238.37 676.021 238.046 676.017 237.707V181.788C676.021 181.452 676.157 181.13 676.395 180.892C676.633 180.654 676.955 180.518 677.292 180.514H739.115C739.452 180.518 739.773 180.654 740.011 180.892C740.25 181.13 740.385 181.452 740.389 181.788V181.788Z" fill="#65617D"/>
<path d="M680.128 183.979H737.401V231.815L680.128 233.105V183.979Z" fill="#6C63FF"/>
<path opacity="0.1" d="M830.491 253.191V257.386L781.471 257.838L780.949 257.848L762.318 258.019L761.873 258.025L756.21 258.073H756.042L721.523 258.393L664.859 258.919H664.811L650.404 259.054L650.249 259.058L586.232 259.645V254.805L651.575 254.376H651.73L664.956 254.285H665.018L756.358 253.682H756.452L756.507 253.679H756.658L758.204 253.669H758.675L782.71 253.508L784.13 253.501L784.446 253.498L830.491 253.191Z" fill="black"/>
<path d="M709.223 193.766C718.37 193.766 725.785 186.351 725.785 177.203C725.785 168.056 718.37 160.641 709.223 160.641C700.076 160.641 692.66 168.056 692.66 177.203C692.66 186.351 700.076 193.766 709.223 193.766Z" fill="#FBBEBE"/>
<path d="M725.789 202.697C725.789 202.697 693.683 206.569 696.749 202.697C697.859 201.297 698.165 197.147 698.104 192.42C698.084 190.984 698.033 189.497 697.959 188.016C697.604 180.917 696.749 173.98 696.749 173.98C696.749 173.98 724.821 160.75 721.594 171.237C720.303 175.474 720.726 181.424 721.707 187.009C721.994 188.639 722.326 190.236 722.675 191.752C723.525 195.451 724.565 199.104 725.789 202.697V202.697Z" fill="#FBBEBE"/>
<path d="M715.312 201.384C719.026 200.697 722.959 199.448 726.453 200.887C727.373 201.265 728.218 201.816 729.161 202.133C730.103 202.449 731.135 202.526 732.116 202.749C735.562 203.53 738.357 206.153 740.151 209.202C741.945 212.251 742.874 215.701 743.784 219.115L746.01 227.449C747.946 234.693 749.882 241.998 750.331 249.487C723.377 251.03 696.362 251.184 669.393 249.949C671.148 246.612 672.942 243.073 672.794 239.301C672.645 235.529 670.474 231.808 671.258 228.091C671.758 225.723 673.378 223.771 674.368 221.567C677.192 215.268 674.994 206.792 679.957 201.997C682.19 199.842 685.442 199.025 688.55 199.129C692.512 199.261 696.568 200.497 700.488 201.1C705.509 201.862 710.252 202.313 715.312 201.384Z" fill="#FF6584"/>
<path opacity="0.1" d="M757.549 237.255L757.517 237.716V237.749L757.462 238.491L757.033 244.463L756.513 251.659L756.365 253.685L756.042 258.022V258.077L721.517 258.399L664.859 259.012V259.283H664.814V259.012V258.922L664.959 254.289L665.237 245.234L665.476 237.558L665.498 236.794C665.512 236.332 665.62 235.878 665.816 235.46C666.011 235.041 666.29 234.667 666.635 234.36C666.98 234.053 667.383 233.819 667.822 233.673C668.26 233.528 668.723 233.473 669.183 233.512C670.706 233.641 672.684 233.799 675.049 233.967L676.017 234.038C689.676 234.987 714.918 236.213 740.389 234.683C740.925 234.654 741.464 234.622 742.003 234.583C745.952 234.335 749.898 234.015 753.806 233.615C754.3 233.563 754.799 233.621 755.269 233.783C755.738 233.945 756.166 234.208 756.523 234.553C756.88 234.899 757.157 235.318 757.334 235.782C757.511 236.246 757.585 236.743 757.549 237.239V237.255Z" fill="black"/>
<path d="M664.85 259.283V259.012L721.517 258.396L756.042 258.073H756.139V258.019L756.461 253.682L756.6 251.746L757.129 244.45L757.546 238.675V238.533C757.565 238.267 757.553 237.999 757.51 237.736C757.512 237.725 757.512 237.714 757.51 237.703C757.421 237.159 757.2 236.645 756.865 236.206C756.509 235.751 756.044 235.393 755.512 235.167C754.98 234.941 754.4 234.855 753.825 234.916C749.918 235.316 745.971 235.635 742.022 235.884C741.483 235.922 740.944 235.955 740.409 235.984C714.937 237.497 689.695 236.271 676.037 235.338L675.069 235.267C672.703 235.099 670.725 234.945 669.202 234.812C668.365 234.742 667.53 234.984 666.861 235.492C666.191 236 665.733 236.739 665.576 237.565C665.543 237.739 665.524 237.916 665.518 238.094L665.298 245.244L664.998 254.301L664.856 258.935V259.025V259.296L664.85 259.283Z" fill="#3F3D56"/>
<path opacity="0.1" d="M757.646 239.517L757.249 244.463L756.658 251.836L756.51 253.682L756.187 257.815L756.168 258.022V258.077L756.119 258.554L756.155 258.077H756.061L721.536 258.399L664.859 259.012V258.922L665.017 254.289L665.34 245.234L665.547 239.217C665.557 238.874 665.652 238.54 665.825 238.244C665.997 237.948 666.241 237.7 666.534 237.523C666.899 237.299 667.327 237.197 667.754 237.232C668.431 237.287 669.264 237.352 670.235 237.423C671.813 237.539 673.759 237.674 676.024 237.816C680.218 238.081 685.481 238.365 691.512 238.597C708.29 239.243 730.942 239.459 752.457 237.574C753.425 237.49 754.425 237.397 755.403 237.303C755.79 237.265 756.18 237.339 756.526 237.516C756.624 237.565 756.717 237.623 756.803 237.691C757.084 237.894 757.307 238.168 757.449 238.484C757.482 238.547 757.509 238.613 757.529 238.681C757.626 238.948 757.666 239.233 757.646 239.517V239.517Z" fill="black"/>
<path opacity="0.1" d="M648.187 243.934V244.963C648.187 245.338 648.081 245.704 647.881 246.021C647.681 246.337 647.396 246.59 647.058 246.751L634.119 246.999C633.775 246.842 633.483 246.589 633.279 246.27C633.075 245.951 632.967 245.581 632.967 245.202V244.234L648.187 243.934Z" fill="black"/>
<path d="M648.345 247.358L631.486 247.68V244.883L648.345 244.56V247.358Z" fill="#3F3D56"/>
<path opacity="0.1" d="M648.345 247.358L631.486 247.68V244.883L648.345 244.56V247.358Z" fill="black"/>
<path d="M648.991 247.358L632.131 247.68V244.883L648.991 244.56V247.358Z" fill="#3F3D56"/>
<path opacity="0.1" d="M771.162 244.579V245.609C771.162 245.983 771.268 246.35 771.468 246.666C771.668 246.983 771.953 247.236 772.291 247.396L785.23 247.645C785.574 247.487 785.866 247.234 786.07 246.915C786.274 246.597 786.383 246.226 786.382 245.848V244.88L771.162 244.579Z" fill="black"/>
<path opacity="0.1" d="M771.001 248.003L787.86 248.326V245.528L771.001 245.205V248.003Z" fill="black"/>
<path d="M770.355 248.003L787.215 248.326V245.528L770.355 245.205V248.003Z" fill="#3F3D56"/>
<path d="M698.746 182.279C698.772 184.538 697.726 186.667 696.839 188.755C693.608 196.359 692.209 204.617 692.754 212.861C692.99 216.411 693.586 219.96 692.99 223.477C692.393 226.994 690.269 230.501 686.859 231.511C692.515 234.883 700.172 234.528 705.496 230.653C708.332 228.588 710.446 225.707 712.514 222.874C712.268 227.963 710.795 232.917 708.219 237.313C712.875 236.901 717.392 235.515 721.478 233.246C725.564 230.977 729.128 227.876 731.939 224.142C733.329 222.267 734.539 220.208 735.075 217.937C736.072 213.742 734.681 209.383 733.62 205.191C732.733 201.688 732.068 198.131 731.629 194.543C731.49 193.395 731.377 192.214 731.661 191.091C731.984 189.778 732.845 188.668 733.481 187.471C735.288 184.07 735.33 179.952 734.404 176.216C733.478 172.479 731.664 169.033 729.867 165.629C728.428 162.899 726.866 160.044 724.233 158.44C722.588 157.44 720.684 157.024 718.787 156.62L710.601 154.868C708.81 154.484 706.967 154.1 705.157 154.381C702.102 154.859 699.949 157.066 698.059 159.331C696.578 161.093 692.957 164.4 692.702 166.707C692.47 168.833 694.348 172.396 694.667 174.638C695.087 177.542 695.384 176.574 697.023 178.355C698.059 179.459 698.727 180.733 698.746 182.279Z" fill="#3F3D56"/>
<path d="M648.884 188.639H616.746C616.704 188.639 616.663 188.622 616.632 188.591C616.602 188.561 616.585 188.52 616.585 188.477C616.585 188.434 616.602 188.393 616.632 188.363C616.663 188.333 616.704 188.316 616.746 188.316H648.884C648.927 188.316 648.968 188.333 648.998 188.363C649.028 188.393 649.045 188.434 649.045 188.477C649.045 188.52 649.028 188.561 648.998 188.591C648.968 188.622 648.927 188.639 648.884 188.639Z" fill="#F2F2F2"/>
<path d="M648.884 191.543H616.746C616.704 191.543 616.663 191.526 616.632 191.495C616.602 191.465 616.585 191.424 616.585 191.381C616.585 191.339 616.602 191.297 616.632 191.267C616.663 191.237 616.704 191.22 616.746 191.22H648.884C648.927 191.22 648.968 191.237 648.998 191.267C649.028 191.297 649.045 191.339 649.045 191.381C649.045 191.424 649.028 191.465 648.998 191.495C648.968 191.526 648.927 191.543 648.884 191.543Z" fill="#F2F2F2"/>
<path d="M648.884 194.447H616.746C616.704 194.447 616.663 194.43 616.632 194.399C616.602 194.369 616.585 194.328 616.585 194.285C616.585 194.243 616.602 194.201 616.632 194.171C616.663 194.141 616.704 194.124 616.746 194.124H648.884C648.927 194.124 648.968 194.141 648.998 194.171C649.028 194.201 649.045 194.243 649.045 194.285C649.045 194.328 649.028 194.369 648.998 194.399C648.968 194.43 648.927 194.447 648.884 194.447Z" fill="#F2F2F2"/>
</g>
<path d="M701.297 76V64.5781H702.625V74.8125H707.695V76H701.297ZM716.844 71.7031C716.844 72.4062 716.753 73.0339 716.57 73.5859C716.388 74.138 716.125 74.6042 715.781 74.9844C715.438 75.3646 715.021 75.6562 714.531 75.8594C714.047 76.0573 713.497 76.1562 712.883 76.1562C712.31 76.1562 711.784 76.0573 711.305 75.8594C710.831 75.6562 710.419 75.3646 710.07 74.9844C709.727 74.6042 709.458 74.138 709.266 73.5859C709.078 73.0339 708.984 72.4062 708.984 71.7031C708.984 70.7656 709.143 69.9688 709.461 69.3125C709.779 68.651 710.232 68.1484 710.82 67.8047C711.414 67.4557 712.12 67.2812 712.938 67.2812C713.719 67.2812 714.401 67.4557 714.984 67.8047C715.573 68.1536 716.029 68.6589 716.352 69.3203C716.68 69.9766 716.844 70.7708 716.844 71.7031ZM710.328 71.7031C710.328 72.3906 710.419 72.987 710.602 73.4922C710.784 73.9974 711.065 74.388 711.445 74.6641C711.826 74.9401 712.315 75.0781 712.914 75.0781C713.508 75.0781 713.995 74.9401 714.375 74.6641C714.76 74.388 715.044 73.9974 715.227 73.4922C715.409 72.987 715.5 72.3906 715.5 71.7031C715.5 71.0208 715.409 70.4323 715.227 69.9375C715.044 69.4375 714.763 69.0521 714.383 68.7812C714.003 68.5104 713.51 68.375 712.906 68.375C712.016 68.375 711.362 68.6693 710.945 69.2578C710.534 69.8464 710.328 70.6615 710.328 71.7031ZM721.477 79.8438C720.352 79.8438 719.484 79.6328 718.875 79.2109C718.266 78.7943 717.961 78.2083 717.961 77.4531C717.961 76.9167 718.13 76.4583 718.469 76.0781C718.812 75.6979 719.286 75.4453 719.891 75.3203C719.667 75.2161 719.474 75.0599 719.312 74.8516C719.156 74.6432 719.078 74.4036 719.078 74.1328C719.078 73.8203 719.164 73.5469 719.336 73.3125C719.513 73.0729 719.781 72.8438 720.141 72.625C719.693 72.4427 719.328 72.1354 719.047 71.7031C718.771 71.2656 718.633 70.7578 718.633 70.1797C718.633 69.5651 718.76 69.0417 719.016 68.6094C719.271 68.1719 719.641 67.8385 720.125 67.6094C720.609 67.3802 721.195 67.2656 721.883 67.2656C722.034 67.2656 722.185 67.2734 722.336 67.2891C722.492 67.2995 722.641 67.3177 722.781 67.3438C722.922 67.3646 723.044 67.3906 723.148 67.4219H726.086V68.2578L724.508 68.4531C724.664 68.6562 724.794 68.901 724.898 69.1875C725.003 69.474 725.055 69.7917 725.055 70.1406C725.055 70.9948 724.766 71.6745 724.188 72.1797C723.609 72.6797 722.815 72.9297 721.805 72.9297C721.565 72.9297 721.32 72.9089 721.07 72.8672C720.815 73.0078 720.62 73.1641 720.484 73.3359C720.354 73.5078 720.289 73.7057 720.289 73.9297C720.289 74.0964 720.339 74.2292 720.438 74.3281C720.542 74.4271 720.69 74.5 720.883 74.5469C721.076 74.5885 721.307 74.6094 721.578 74.6094H723.086C724.018 74.6094 724.732 74.8047 725.227 75.1953C725.727 75.5859 725.977 76.1562 725.977 76.9062C725.977 77.8542 725.591 78.5807 724.82 79.0859C724.049 79.5911 722.935 79.8438 721.477 79.8438ZM721.516 78.8281C722.224 78.8281 722.81 78.7552 723.273 78.6094C723.742 78.4688 724.091 78.263 724.32 77.9922C724.555 77.7266 724.672 77.4089 724.672 77.0391C724.672 76.6953 724.594 76.4349 724.438 76.2578C724.281 76.0859 724.052 75.9714 723.75 75.9141C723.448 75.8516 723.078 75.8203 722.641 75.8203H721.156C720.771 75.8203 720.435 75.8802 720.148 76C719.862 76.1198 719.641 76.2969 719.484 76.5312C719.333 76.7656 719.258 77.0573 719.258 77.4062C719.258 77.8698 719.453 78.2214 719.844 78.4609C720.234 78.7057 720.792 78.8281 721.516 78.8281ZM721.852 71.9844C722.471 71.9844 722.938 71.8281 723.25 71.5156C723.562 71.2031 723.719 70.7474 723.719 70.1484C723.719 69.5078 723.56 69.0286 723.242 68.7109C722.924 68.388 722.456 68.2266 721.836 68.2266C721.242 68.2266 720.784 68.3932 720.461 68.7266C720.143 69.0547 719.984 69.5365 719.984 70.1719C719.984 70.7552 720.146 71.2031 720.469 71.5156C720.792 71.8281 721.253 71.9844 721.852 71.9844ZM729.07 67.4375V76H727.773V67.4375H729.07ZM728.438 64.2344C728.651 64.2344 728.833 64.3047 728.984 64.4453C729.141 64.5807 729.219 64.7943 729.219 65.0859C729.219 65.3724 729.141 65.5859 728.984 65.7266C728.833 65.8672 728.651 65.9375 728.438 65.9375C728.214 65.9375 728.026 65.8672 727.875 65.7266C727.729 65.5859 727.656 65.3724 727.656 65.0859C727.656 64.7943 727.729 64.5807 727.875 64.4453C728.026 64.3047 728.214 64.2344 728.438 64.2344ZM735.875 67.2812C736.891 67.2812 737.659 67.5312 738.18 68.0312C738.701 68.526 738.961 69.3229 738.961 70.4219V76H737.68V70.5078C737.68 69.7943 737.516 69.2604 737.188 68.9062C736.865 68.5521 736.367 68.375 735.695 68.375C734.747 68.375 734.081 68.6432 733.695 69.1797C733.31 69.7161 733.117 70.4948 733.117 71.5156V76H731.82V67.4375H732.867L733.062 68.6719H733.133C733.315 68.3698 733.547 68.1172 733.828 67.9141C734.109 67.7057 734.424 67.5495 734.773 67.4453C735.122 67.3359 735.49 67.2812 735.875 67.2812Z" fill="black"/>
</g>
<defs>
<filter id="filter0_d_2_2" x="490" y="18" width="633" height="604" filterUnits="userSpaceOnUse" color-interpolation-filters="sRGB">
<feFlood flood-opacity="0" result="BackgroundImageFix"/>
<feColorMatrix in="SourceAlpha" type="matrix" values="0 0 0 0 0 0 0 0 0 0 0 0 0 0 0 0 0 0 127 0" result="hardAlpha"/>
<feMorphology radius="2" operator="dilate" in="SourceAlpha" result="effect1_dropShadow_2_2"/>
<feOffset/>
<feGaussianBlur stdDeviation="6"/>
<feComposite in2="hardAlpha" operator="out"/>
<feColorMatrix type="matrix" values="0 0 0 0 0.0588235 0 0 0 0 0.0588235 0 0 0 0 0.0588235 0 0 0 0.28 0"/>
<feBlend mode="normal" in2="BackgroundImageFix" result="effect1_dropShadow_2_2"/>
<feBlend mode="normal" in="SourceGraphic" in2="effect1_dropShadow_2_2" result="shape"/>
</filter>
<filter id="filter1_d_2_2" x="483" y="-14" width="474" height="668" filterUnits="userSpaceOnUse" color-interpolation-filters="sRGB">
<feFlood flood-opacity="0" result="BackgroundImageFix"/>
<feColorMatrix in="SourceAlpha" type="matrix" values="0 0 0 0 0 0 0 0 0 0 0 0 0 0 0 0 0 0 127 0" result="hardAlpha"/>
<feMorphology radius="2" operator="dilate" in="SourceAlpha" result="effect1_dropShadow_2_2"/>
<feOffset/>
<feGaussianBlur stdDeviation="6"/>
<feComposite in2="hardAlpha" operator="out"/>
<feColorMatrix type="matrix" values="0 0 0 0 0.0588235 0 0 0 0 0.0588235 0 0 0 0 0.0588235 0 0 0 0.2 0"/>
<feBlend mode="normal" in2="BackgroundImageFix" result="effect1_dropShadow_2_2"/>
<feBlend mode="normal" in="SourceGraphic" in2="effect1_dropShadow_2_2" result="shape"/>
</filter>
<clipPath id="clip0_2_2">
<rect width="1440" height="820" fill="white"/>
</clipPath>
<clipPath id="clip1_2_2">
<rect width="336" height="178.813" fill="white" transform="translate(552 81)"/>
</clipPath>
</defs>
</svg>
